<?xml version="1.0"?><!DOCTYPE svg  PUBLIC '-//W3C//DTD SVG 1.1//EN'  'http://www.w3.org/Graphics/SVG/1.1/DTD/svg11.dtd'><svg enable-background="new 0 0 64 64" height="64px" id="Layer_1" version="1.1" viewBox="0 0 64 64" width="64px" xml:space="preserve" xmlns="http://www.w3.org/2000/svg" xmlns:xlink="http://www.w3.org/1999/xlink"><g><path d="M36.135,23H27v9h9.135c2.566,0,4.648-1.932,4.648-4.499C40.783,24.932,38.701,23,36.135,23z" fill="#CC4521"/><path d="M32,1C14.88,1,1,14.879,1,32s13.88,31,31,31c17.119,0,31-13.879,31-31S49.119,1,32,1z M36.135,38H27v10h-6   V17h15.135c5.991,0,10.85,4.508,10.85,10.501C46.984,33.492,42.126,38,36.135,38z" fill="#D8532B"/><path d="M43.292,3.131c3.861,5.112,6.117,11.28,6.117,17.922c0,17.655-15.938,31.969-35.602,31.969   c-1.65,0-3.273-0.109-4.865-0.305C14.618,59.029,22.844,63,32,63c17.119,0,31-13.879,31-31C63,18.865,54.827,7.646,43.292,3.131z" fill="#CC4521"/><path d="M40.604,28.501c0.104-0.391,0.179-0.61,0.179-1.031c0-2.569-2.082-4.471-4.648-4.471H27v2h9.135   C38.279,25,40.069,26.524,40.604,28.501z" fill="#FC732D"/><g><path d="M36.135,38H27v3h9.135c5.991,0,10.85-5.047,10.85-11.038c0-0.411-0.028-1.009-0.071-1.406    C46.31,33.977,41.717,38,36.135,38z" fill="#FC732D"/><path d="M32,3.422c16.714,0,30.333,13.229,30.97,29.789C62.983,32.808,63,32.407,63,32C63,14.879,49.119,1,32,1    C14.88,1,1,14.879,1,32c0,0.407,0.016,0.808,0.03,1.211C1.667,16.651,15.285,3.422,32,3.422z" fill="#FC732D"/><rect fill="#FC732D" height="2" width="6" x="21" y="48"/></g></g></svg>